<?xml version="1.0" encoding="UTF-8"?>
<svg xmlns="http://www.w3.org/2000/svg" xmlns:xlink="http://www.w3.org/1999/xlink" width="224.87999pt" height="225pt" viewBox="0 0 224.87999 225" version="1.2">
<defs>
<clipPath id="clip1">
  <path d="M 1.5 2.308594 L 156 2.308594 L 156 198 L 1.5 198 Z M 1.5 2.308594 "/>
</clipPath>
</defs>
<g id="surface1">
<path style=" stroke:none;fill-rule:nonzero;fill:rgb(50.19989%,79.998779%,15.689087%);fill-opacity:1;" d="M 205.6875 191.460938 C 240.542969 145.1875 199.722656 50.152344 199.722656 50.152344 C 199.722656 50.152344 171.347656 94.328125 140.21875 106.671875 C 119.417969 114.910156 64.921875 153.417969 121.738281 207.484375 C 122.339844 208.0625 122.984375 208.644531 123.648438 209.214844 C 151.132812 195.058594 204.160156 155.191406 198.828125 59.785156 C 198.828125 59.785156 217.773438 168.449219 127.300781 212.144531 C 144.417969 224.828125 174.558594 232.792969 205.6875 191.460938 "/>
<g clip-path="url(#clip1)" clip-rule="nonzero">
<path style=" stroke:none;fill-rule:nonzero;fill:rgb(15.289307%,58.81958%,23.529053%);fill-opacity:1;" d="M 109.789062 115.714844 C 96.363281 80.410156 68.136719 41.5 11.332031 9.835938 C 11.332031 9.835938 86.359375 40.796875 115.609375 111.71875 C 120.105469 108.882812 124.328125 106.761719 127.679688 105.4375 C 137.308594 101.617188 146.664062 94.757812 155.007812 87.097656 C 125.210938 21.941406 1.628906 2.339844 1.628906 2.339844 C 1.628906 2.339844 29.679688 62.8125 21.796875 104.65625 C 16.859375 130.816406 20.292969 206.707031 99.789062 196.265625 C 69.046875 159.410156 89.53125 130.828125 109.789062 115.714844 "/>
</g>
</g>
</svg>
